<?xml version="1.0" encoding="iso-8859-1"?>
<!-- Generator: Adobe Illustrator 19.0.0, SVG Export Plug-In . SVG Version: 6.00 Build 0)  -->
<svg version="1.1" id="Layer_1" xmlns="http://www.w3.org/2000/svg" xmlns:xlink="http://www.w3.org/1999/xlink" x="0px" y="0px"
	 viewBox="0 0 489.5 489.5" style="enable-background:new 0 0 489.5 489.5;" xml:space="preserve">
<g>
	<g>
		<path id="XMLID_506_" style="fill:#3C92CA;" d="M297.4,9H191.8c-6.5,0-11.7,5.2-11.7,11.7v61.8h129.1V20.7
			C309.2,14.3,303.9,9,297.4,9z"/>
		<path d="M171,395.7c0,0.1,0,0.2,0,0.2c0,0.4,0.1,0.9,0.1,1.3c0,0.1,0,0.2,0.1,0.4c0.1,0.5,0.3,1,0.5,1.5c0.1,0.1,0.1,0.2,0.2,0.4
			c0.2,0.4,0.4,0.7,0.6,1c0.1,0.1,0.2,0.3,0.3,0.4s0.1,0.2,0.2,0.3l64.6,84.7c1.7,2.2,4.4,3.6,7.2,3.6c2.8,0,5.5-1.3,7.2-3.6
			l64.6-84.7c0.1-0.1,0.1-0.2,0.2-0.3c0.1-0.1,0.2-0.3,0.3-0.4c0.2-0.3,0.4-0.7,0.6-1c0.1-0.1,0.1-0.2,0.2-0.4
			c0.2-0.5,0.3-1,0.5-1.5c0-0.1,0-0.2,0.1-0.4c0.1-0.4,0.1-0.9,0.1-1.3c0-0.1,0-0.2,0-0.2v-272c0-5-4.1-9.1-9.1-9.1
			s-9.1,4.1-9.1,9.1v262.9H254V124.2c0-5-4.1-9.1-9.1-9.1s-9.1,4.1-9.1,9.1v262.4h-46.4V124.2c0-5-4.1-9.1-9.1-9.1s-9.1,4.1-9.1,9.1
			v271.5H171z M290.9,404.8l-46.3,60.6l-46.3-60.7h92.6V404.8z"/>
		<path d="M285.6,0h-82c-18,0-32.7,14.6-32.7,32.7v49.9c0,5,4.1,9.1,9.1,9.1h129.1c5,0,9.1-4.1,9.1-9.1v-50
			C318.2,14.6,303.6,0,285.6,0z M300.1,73.5h-111V32.6c0-8,6.5-14.5,14.5-14.5h82c8,0,14.5,6.5,14.5,14.5V73.5z"/>
	</g>
</g>
<g>
</g>
<g>
</g>
<g>
</g>
<g>
</g>
<g>
</g>
<g>
</g>
<g>
</g>
<g>
</g>
<g>
</g>
<g>
</g>
<g>
</g>
<g>
</g>
<g>
</g>
<g>
</g>
<g>
</g>
</svg>
