<!-- Generated by IcoMoon.io -->
<svg version="1.1" xmlns="http://www.w3.org/2000/svg" width="24" height="24" viewBox="0 0 24 24">
<title>align-center</title>
<path d="M19.2 8.4h-14.4c-0.662 0-1.2 0.538-1.2 1.2s0.538 1.2 1.2 1.2h14.4c0.662 0 1.2-0.538 1.2-1.2s-0.538-1.2-1.2-1.2zM22.8 3.6h-21.6c-0.662 0-1.2 0.538-1.2 1.2s0.538 1.2 1.2 1.2h21.6c0.662 0 1.2-0.538 1.2-1.2s-0.538-1.2-1.2-1.2zM22.8 13.2h-21.6c-0.662 0-1.2 0.538-1.2 1.2s0.538 1.2 1.2 1.2h21.6c0.662 0 1.2-0.538 1.2-1.2s-0.538-1.2-1.2-1.2zM19.2 18h-14.4c-0.662 0-1.2 0.538-1.2 1.2s0.538 1.2 1.2 1.2h14.4c0.662 0 1.2-0.538 1.2-1.2s-0.538-1.2-1.2-1.2z"></path>
</svg>
